<?xml version="1.0" encoding="UTF-8" standalone="no"?>
<!-- Created with Inkscape (http://www.inkscape.org/) -->
<svg
   xmlns:svg="http://www.w3.org/2000/svg"
   xmlns="http://www.w3.org/2000/svg"
   version="1.0"
   width="500"
   height="500"
   id="svg2">
  <defs
     id="defs4" />
  <path
     d="M 214.84375,297.625 C 193.31355,297.46851 174.01722,313.1399 167.0625,333 C 161.52877,345.32396 158.56847,358.56621 155.53125,371.6875 C 168.14555,370.38105 183.7382,375.64354 193.78125,365.53125 C 197.16436,361.14309 199.13274,355.39817 204.15625,352.46875 C 201.91277,376.4538 193.53199,400.24738 177.5625,418.6875 C 168.75723,432.15837 170.21249,453.16996 184.53125,462.21875 C 202.26691,475.03806 231.71582,464.99088 236.28498,443.08257 C 239.31798,434.07312 241.53874,424.84443 243.28125,415.5 C 243.05443,429.00539 243.96363,443.9406 254.1875,453.9375 C 269.71793,471.33944 299.78886,473.35582 316.875,456.90625 C 333.05243,443.05606 335.53492,420.50245 337.375,400.625 C 336.29616,393.80533 328.05875,394.74128 323,394.875 C 313.06083,393.42981 299.62091,398.24565 299,409.65625 C 298.55543,412.7732 297.81123,410.95298 297.96875,408.5 C 298.13021,389.29303 298.28015,369.38 301.3125,350.78125 C 312.14923,351.57057 325.9963,353.07668 333.46875,343.375 C 338.94721,332.85551 333.40032,320.72461 335.78125,309.53125 C 337.09811,303.59108 333.23266,295.5707 326.03125,297.59375 C 288.96875,297.60175 251.90622,297.57099 214.84375,297.625 z "
     style="font-size:300px;font-style:normal;font-weight:normal;opacity:1;color:#000000;fill:#ffffff;fill-opacity:1;fill-rule:nonzero;stroke:none;stroke-width:1px;stroke-linecap:butt;stroke-linejoin:miter;marker:none;marker-start:none;marker-mid:none;marker-end:none;stroke-miterlimit:4;stroke-dasharray:none;stroke-dashoffset:0;stroke-opacity:1;visibility:visible;display:inline;overflow:visible;enable-background:accumulate;font-family:Times New Roman"
     id="path3238" />
  <path
     d="M 130.65625,235.84375 C 130.65625,254.03125 130.65625,272.21875 130.65625,290.40625 C 208.88542,290.40625 287.11458,290.40625 365.34375,290.40625 C 365.34375,271.55208 365.34375,252.69792 365.34375,233.84375 C 287.11458,233.84375 208.88542,233.84375 130.65625,233.84375 L 130.65625,234.84375 L 130.65625,235.84375 z "
     style="opacity:1;color:#000000;fill:#ffffff;fill-opacity:1;fill-rule:nonzero;stroke:none;stroke-width:1px;stroke-linecap:butt;stroke-linejoin:miter;marker:none;marker-start:none;marker-mid:none;marker-end:none;stroke-miterlimit:4;stroke-dasharray:none;stroke-dashoffset:0;stroke-opacity:1;visibility:visible;display:inline;overflow:visible;enable-background:accumulate"
     id="path3240" />
  <path
     d="M 275.84375,6.1875 C 261.68522,6.4686598 246.68694,7.9253951 234.88682,16.478464 C 219.78443,24.078631 204.26867,30.902029 189.28125,38.8125 C 191.49978,50.268176 196.51439,64.72797 209.53125,67.0625 C 213.43461,68.278285 217.52758,66.501749 221.03125,64.75 C 223.49733,91.532123 220.49899,118.44863 221.875,145.28125 C 222.0701,164.90382 222.75162,184.60821 220.625,204.15625 C 212.29114,204.17402 201.30494,204.26629 197.53125,213.28125 C 190.15265,227.15758 204.05803,246.44394 219.74949,242.43692 C 246.62681,241.50477 273.52133,242.27662 300.40625,242.03125 C 304.74988,230.73564 306.03498,214.66332 294.8125,206.96875 C 290.33273,203.2895 284.26008,204.44728 278.90625,204.25 C 276.7653,140.7803 279.01399,77.267629 278.0625,13.78125 C 277.13533,11.718329 280.20162,4.1866299 275.84375,6.1875 z "
     style="font-size:300px;font-style:normal;font-weight:normal;opacity:1;color:#000000;fill:#ffffff;fill-opacity:1;fill-rule:nonzero;stroke:none;stroke-width:1px;stroke-linecap:butt;stroke-linejoin:miter;marker:none;marker-start:none;marker-mid:none;marker-end:none;stroke-miterlimit:4;stroke-dasharray:none;stroke-dashoffset:0;stroke-opacity:1;visibility:visible;display:inline;overflow:visible;enable-background:accumulate;font-family:Times New Roman"
     id="path3242" />
  <g
     style="opacity:1;color:#000000;fill:#000000;fill-opacity:1;fill-rule:nonzero;stroke:none;stroke-width:1px;stroke-linecap:butt;stroke-linejoin:miter;marker:none;marker-start:none;marker-mid:none;marker-end:none;stroke-miterlimit:4;stroke-dasharray:none;stroke-dashoffset:0;stroke-opacity:1;visibility:visible;display:inline;overflow:visible;enable-background:accumulate"
     id="g5179">
    <path
       d="M 321.55762,313.58665 L 321.55762,334.97337 L 287.57324,334.97337 L 284.64355,379.50461 C 284.05751,387.21952 283.76454,393.90896 283.76465,399.57297 C 283.76454,413.14723 285.32704,421.448 288.45215,424.47532 C 291.67469,427.40502 295.53211,428.86987 300.02441,428.86985 C 309.39928,428.86987 314.96568,422.96167 316.72363,411.14524 L 321.99707,411.14524 C 318.77427,438.29369 307.93444,451.86789 289.47754,451.86789 C 280.88368,451.86789 273.9501,449.23117 268.67676,443.95774 C 263.50089,438.68431 260.913,430.87182 260.91309,420.52024 C 260.913,413.68434 261.93839,399.23122 263.98926,377.16086 L 267.94434,334.97337 L 236.88965,334.97337 C 234.83881,370.52032 232.34858,396.49685 229.41895,412.90305 C 226.58686,429.30932 223.41304,439.90501 219.89746,444.69016 C 216.47945,449.47532 211.79196,451.86789 205.83496,451.86789 C 201.34275,451.86789 197.53416,450.54953 194.40918,447.91282 C 191.38182,445.2761 189.86815,441.80931 189.86816,437.51243 C 189.86815,433.41088 192.50487,427.79565 197.77832,420.66672 C 205.49313,410.3152 211.25485,399.57302 215.06348,388.44016 C 218.87203,377.20976 221.75288,359.38752 223.70605,334.97337 L 213.74512,334.97337 C 205.73728,334.97348 199.58494,336.78012 195.28809,340.39329 C 191.08885,343.90902 187.08495,348.98714 183.27637,355.62766 L 178.00293,355.62766 C 180.83496,345.17855 184.49706,336.58481 188.98926,329.84641 C 193.48143,323.10826 198.07127,318.71373 202.75879,316.66282 C 207.54391,314.61217 215.99117,313.58678 228.10059,313.58665 L 321.55762,313.58665"
       style="font-size:300px;font-style:normal;font-weight:normal;color:#000000;fill:#000000;fill-opacity:1;fill-rule:nonzero;stroke:none;stroke-width:1px;stroke-linecap:butt;stroke-linejoin:miter;marker:none;marker-start:none;marker-mid:none;marker-end:none;stroke-miterlimit:4;stroke-dasharray:none;stroke-dashoffset:0;stroke-opacity:1;visibility:visible;display:inline;overflow:visible;enable-background:accumulate;font-family:Times New Roman"
       id="text2159" />
    <path
       d="M 148.64865,249.84275 L 351.35135,249.84275 L 351.35135,274.41277 L 148.64865,274.41277 L 148.64865,249.84275 z "
       style="color:#000000;fill:#000000;fill-opacity:1;fill-rule:nonzero;stroke:none;stroke-width:1px;stroke-linecap:butt;stroke-linejoin:miter;marker:none;marker-start:none;marker-mid:none;marker-end:none;stroke-miterlimit:4;stroke-dasharray:none;stroke-dashoffset:0;stroke-opacity:1;visibility:visible;display:inline;overflow:visible;enable-background:accumulate"
       id="rect2169" />
    <path
       d="M 210.88867,46.893829 L 259.22852,23.309845 L 264.0625,23.309845 L 264.0625,191.03445 C 264.06241,202.16729 264.50186,209.10088 265.38086,211.83524 C 266.35733,214.56962 268.31045,216.66923 271.24023,218.13406 C 274.16982,219.59891 280.12685,220.42899 289.11133,220.6243 L 289.11133,226.04422 L 214.4043,226.04422 L 214.4043,220.6243 C 223.77925,220.42899 229.83393,219.64774 232.56836,218.28055 C 235.30267,216.81571 237.20697,214.91142 238.28125,212.56766 C 239.35541,210.12627 239.89251,202.94854 239.89258,191.03445 L 239.89258,83.807892 C 239.89251,69.354924 239.40423,60.077589 238.42773,55.975861 C 237.74408,52.851034 236.47455,50.556114 234.61914,49.091095 C 232.86127,47.62643 230.71284,46.894008 228.17383,46.893829 C 224.5605,46.894008 219.53121,48.407679 213.08594,51.434845 L 210.88867,46.893829"
       style="font-size:300px;font-style:normal;font-weight:normal;color:#000000;fill:#000000;fill-opacity:1;fill-rule:nonzero;stroke:none;stroke-width:1px;stroke-linecap:butt;stroke-linejoin:miter;marker:none;marker-start:none;marker-mid:none;marker-end:none;stroke-miterlimit:4;stroke-dasharray:none;stroke-dashoffset:0;stroke-opacity:1;visibility:visible;display:inline;overflow:visible;enable-background:accumulate;font-family:Times New Roman"
       id="text5172" />
  </g>
</svg>
