<?xml version="1.0" encoding="UTF-8" standalone="no"?>
<!-- Created with Inkscape (http://www.inkscape.org/) -->
<svg
   xmlns:svg="http://www.w3.org/2000/svg"
   xmlns="http://www.w3.org/2000/svg"
   version="1.0"
   width="500"
   height="500"
   id="svg2">
  <defs
     id="defs4" />
  <path
     d="M 272,13.53125 C 261.26028,12.957208 250.42693,14.585203 240.8125,19.53125 C 226.04321,27.383533 210.86998,34.613583 195.75,41.78125 C 196.66219,52.421715 202.05914,65.877812 214.09375,67.1875 C 217.45223,67.869849 221.01244,66.006416 223.5625,65 C 226.25201,99.560588 223.006,134.24696 224.75,168.84375 C 224.76508,176.31779 224.46046,183.87782 223.34375,191.21875 C 215.64709,191.12575 204.99991,191.5074 202.09375,200.25 C 200.28098,204.66733 200.54029,209.81395 202.4375,214.15625 C 179.03125,214.15625 155.625,214.15625 132.21875,214.15625 C 132.21875,233.13542 132.21875,252.11458 132.21875,271.09375 C 135.9664,267.34113 132.63163,274.08396 132.6875,275.875 C 128.56837,304.76103 123.05156,333.53564 118.1875,362.34375 C 110.38092,359.64464 103.30556,366.24312 95.811307,367.52489 C 87.338771,370.49842 78.883942,373.27449 70.375,376.21875 C 81.850776,409.05949 91.926982,442.51578 104.8125,474.90625 C 113.08693,481.63067 124.67119,478.10297 133.875,482.4375 C 143.56887,484.19273 154.2539,476.50348 153.55016,466.20296 C 163.21956,411.8696 172.30264,357.43445 181.75,303.0625 C 190.20856,303.11375 198.66667,302.88996 207.125,303 C 193.96594,317.4075 187.07754,337.37877 188.21875,356.8125 C 192.72069,365.15221 204.43541,363.9986 211.96875,361.15625 C 219.07588,358.09685 222.08569,350.62985 223.96875,343.78125 C 230.86145,331.53543 251.67108,327.76002 259.1875,341.15625 C 268.95588,356.99974 261.27951,376.73212 252.40363,391.11451 C 235.25284,420.89688 208.15958,442.65574 185.5,467.9375 C 179.25629,476.97769 184.15955,491.20408 195.21875,493.5 C 205.11926,495.79502 215.38124,492.76156 225.43748,493.92292 C 252.84364,493.80165 280.25004,494.01427 307.65625,493.90625 C 315.13129,472.05739 322.63613,450.20244 330.40625,428.40625 C 319.11183,434.8197 303.72352,427.14944 293.96875,437.03125 C 291.56069,441.55468 287.46595,445.38355 282.125,445.8125 C 273.51859,446.82261 264.67061,445.54636 255.96875,446.09375 C 280.48674,419.4227 306.83662,390.54608 312.875,353.5 C 314.94695,335.28332 308.89471,316.16019 296.09375,303.03125 C 319.35417,303.03125 342.61458,303.03125 365.875,303.03125 C 365.875,284.11458 365.875,265.19792 365.875,246.28125 C 361.74147,251.58744 363.23021,246.16147 363.07916,243.03139 C 363.15991,233.40549 362.38319,223.77295 363.125,214.15625 C 341.125,214.14499 319.12495,214.18414 297.125,214.125 C 299.16262,203.54971 291.91535,190.03877 280,191.1875 C 277.50196,191.34036 273.46701,192.61331 274.81327,188.37644 C 273.37563,130.03025 274.98818,71.664542 274.1875,13.3125 C 273.45833,13.385417 272.72917,13.458333 272,13.53125 z "
     style="font-size:300px;font-style:normal;font-weight:normal;fill:#ffffff;fill-opacity:1;stroke:none;stroke-width:1px;stroke-linecap:butt;stroke-linejoin:miter;stroke-opacity:1;font-family:Times New Roman"
     id="path5179" />
  <path
     d="M 309.64161,446.69802 L 297.73307,480.91801 L 197.45062,480.91801 L 197.45062,476.0669 C 226.95034,447.92175 247.71714,424.93362 259.75109,407.10245 C 271.7849,389.27143 277.80185,372.96997 277.80193,358.19801 C 277.80185,346.92259 274.50089,337.65741 267.89904,330.40245 C 261.29705,323.1478 253.39981,319.52039 244.20731,319.52023 C 235.8504,319.52039 228.32922,322.09891 221.64376,327.25579 C 215.04181,332.32557 210.15305,339.79889 206.97745,349.67579 L 202.33939,349.67579 C 204.42859,333.50557 209.77699,321.09372 218.38458,312.44024 C 227.07569,303.78707 237.89783,299.46042 250.85103,299.46023 C 264.63979,299.46042 276.13047,304.093 285.32312,313.35801 C 294.59914,322.62336 299.2372,333.54926 299.2373,346.13579 C 299.2372,355.13887 297.23155,364.14183 293.22035,373.14468 C 287.03618,387.30477 277.00794,402.29513 263.13562,418.11579 C 242.32697,441.89065 229.33205,456.22544 224.15082,461.12024 L 268.5258,461.12024 C 277.55114,461.12025 283.86057,460.77062 287.45411,460.07134 C 291.13104,459.37211 294.432,457.97359 297.35701,455.87579 C 300.2818,453.69064 302.83064,450.63137 305.00355,446.69802 L 309.64161,446.69802"
     style="font-size:300px;font-style:normal;font-weight:normal;fill:#000000;fill-opacity:1;stroke:none;stroke-width:1px;stroke-linecap:butt;stroke-linejoin:miter;stroke-opacity:1;font-family:Times New Roman"
     id="text2165" />
  <path
     d="M 146.28458,229.16443 L 348.98728,229.16443 L 348.98728,253.73445 L 146.28458,253.73445 L 146.28458,229.16443 z "
     style="fill:#000000;fill-opacity:1;stroke:none;stroke-width:17.70199966;stroke-miterlimit:4;stroke-dashoffset:0;stroke-opacity:1"
     id="rect2169" />
  <path
     d="M 149.23967,265.49277 L 351.94237,265.49277 L 351.94237,290.06279 L 149.23967,290.06279 L 149.23967,265.49277 z "
     style="fill:#000000;fill-opacity:1;stroke:none;stroke-width:17.70199966;stroke-miterlimit:4;stroke-dashoffset:0;stroke-opacity:1"
     id="path3142" />
  <path
     d="M 114.94855,465.42282 L 149.25189,265.64378 L 173.46753,269.80176 L 139.16419,469.5808 L 114.94855,465.42282 z "
     style="fill:#000000;fill-opacity:1;stroke:none;stroke-width:17.70199966;stroke-miterlimit:4;stroke-dashoffset:0;stroke-opacity:1"
     id="path3144" />
  <path
     d="M 115.52119,465.99415 L 88.206744,386.00263 L 111.42918,377.97748 L 138.74363,457.969 L 115.52119,465.99415 z "
     style="fill:#000000;fill-opacity:1;stroke:none;stroke-width:17.70199966;stroke-miterlimit:4;stroke-dashoffset:0;stroke-opacity:1"
     id="path3146" />
  <text
     x="180.85107"
     y="211.58392"
     style="font-size:200px;font-family:Times New Roman"
     id="text5172"
     xml:space="preserve"><tspan
       x="180.85107"
       y="211.58392"
       style="font-size:270px"
       id="tspan5174">1</tspan></text>
</svg>
