<?xml version="1.0" encoding="UTF-8" standalone="no"?>
<!-- Created with Inkscape (http://www.inkscape.org/) -->
<svg
   xmlns:svg="http://www.w3.org/2000/svg"
   xmlns="http://www.w3.org/2000/svg"
   version="1.0"
   width="500"
   height="500"
   id="svg2">
  <defs
     id="defs4" />
  <path
     d="M 242.5,5 C 206.81175,6.0552674 176.95825,37.967605 174.63857,72.977534 C 173.5639,80.975889 172.46758,88.972372 171.15625,96.9375 C 182.29469,90.141441 197.99693,97.63113 207.59375,87.59375 C 212.20764,79.286587 214.73794,68.699145 223.90625,63.90625 C 234.93362,56.52345 252.85657,58.604581 258.6875,71.71875 C 267.23723,88.318315 259.44232,107.40645 250.59375,122.09375 C 233.99225,150.35436 208.99254,172.16359 186.13278,195.04516 C 178.27899,202.33026 167.92212,210.25127 167.625,221.9375 C 167.93907,226.38658 169.99133,230.62078 173,233.84375 C 159.55208,233.84375 146.10417,233.84375 132.65625,233.84375 C 132.65625,252.69792 132.65625,271.55208 132.65625,290.40625 C 210.88542,290.40625 289.11458,290.40625 367.34375,290.40625 C 367.34375,271.55208 367.34375,252.69792 367.34375,233.84375 C 349.90625,233.84375 332.46875,233.84375 315.03125,233.84375 C 324.57528,206.59053 335.64293,179.89883 343.59375,152.125 C 335.02836,159.15882 327.40697,171.70043 314.75,169.40625 C 306.0625,168.63819 297.52669,173.5572 293.53125,181.15625 C 283.61588,189.11455 270.09049,184.67091 258.46875,185.59375 C 254.57303,185.93154 250.87524,186.56792 256.23674,182.6749 C 283.10331,154.62659 311.23064,123.87222 318.8125,84.5625 C 323.34205,55.622435 307.43592,24.795222 280.625,12.8125 C 268.88391,6.8386123 255.656,4.4506758 242.5,5 z M 326.40625,297.21875 C 286.18191,298.93265 245.7645,295.54215 205.64529,299.10665 C 188.92847,302.55504 176.06284,316.01732 169.84375,331.375 C 163.77165,344.12874 160.67942,357.95977 157.5625,371.6875 C 170.16277,370.35728 185.73374,375.68537 195.78125,365.5625 C 199.15255,361.16492 201.12272,355.3865 206.15625,352.46875 C 203.87071,376.29496 195.64158,400.22078 179.75,418.375 C 170.65952,431.92983 172.16273,453.12491 186.65625,462.34375 C 204.69632,475.09003 234.12635,464.59164 238.56299,442.61274 C 241.49898,433.72286 243.65679,424.60205 245.25,415.375 C 245.74614,428.36616 245.57486,443.15374 255.34375,453.0625 C 270.64482,470.5485 300.20279,473.82543 317.8125,457.90625 C 333.68685,444.62859 337.65257,422.69124 339.04439,402.9832 C 340.51862,399.47737 339.11013,393.21516 334.21875,394.75 C 324.05809,395.43032 310.91536,392.73401 303.71875,402.09375 C 301.12417,404.80083 301.47033,409.17076 300.15625,412.15625 C 299.52241,406.41804 300.42823,400.50204 300,394.6875 C 300.32866,380.02349 301.31527,365.22083 303.0625,350.75 C 313.83807,351.57881 328.333,353.34684 334.96875,342.65625 C 340.72172,331.93053 336.01767,319.47071 337.78125,308.0625 C 337.29115,302.34963 332.47608,296.75172 326.40625,297.21875 z "
     style="font-size:300px;font-style:normal;font-weight:normal;color:#000000;fill:#ffffff;fill-opacity:1;fill-rule:nonzero;stroke:none;stroke-width:1px;stroke-linecap:butt;stroke-linejoin:miter;marker:none;marker-start:none;marker-mid:none;marker-end:none;stroke-miterlimit:4;stroke-dasharray:none;stroke-dashoffset:0;stroke-opacity:1;visibility:visible;display:inline;overflow:visible;enable-background:accumulate;font-family:Times New Roman"
     id="path4341" />
  <g
     id="g6169">
    <path
       d="M 321.55762,313.58665 L 321.55762,334.97337 L 287.57324,334.97337 L 284.64355,379.50461 C 284.05751,387.21952 283.76454,393.90896 283.76465,399.57297 C 283.76454,413.14723 285.32704,421.448 288.45215,424.47532 C 291.67469,427.40502 295.53211,428.86987 300.02441,428.86985 C 309.39928,428.86987 314.96568,422.96167 316.72363,411.14524 L 321.99707,411.14524 C 318.77427,438.29369 307.93444,451.86789 289.47754,451.86789 C 280.88368,451.86789 273.9501,449.23117 268.67676,443.95774 C 263.50089,438.68431 260.913,430.87182 260.91309,420.52024 C 260.913,413.68434 261.93839,399.23122 263.98926,377.16086 L 267.94434,334.97337 L 236.88965,334.97337 C 234.83881,370.52032 232.34858,396.49685 229.41895,412.90305 C 226.58686,429.30932 223.41304,439.90501 219.89746,444.69016 C 216.47945,449.47532 211.79196,451.86789 205.83496,451.86789 C 201.34275,451.86789 197.53416,450.54953 194.40918,447.91282 C 191.38182,445.2761 189.86815,441.80931 189.86816,437.51243 C 189.86815,433.41088 192.50487,427.79565 197.77832,420.66672 C 205.49313,410.3152 211.25485,399.57302 215.06348,388.44016 C 218.87203,377.20976 221.75288,359.38752 223.70605,334.97337 L 213.74512,334.97337 C 205.73728,334.97348 199.58494,336.78012 195.28809,340.39329 C 191.08885,343.90902 187.08495,348.98714 183.27637,355.62766 L 178.00293,355.62766 C 180.83496,345.17855 184.49706,336.58481 188.98926,329.84641 C 193.48143,323.10826 198.07127,318.71373 202.75879,316.66282 C 207.54391,314.61217 215.99117,313.58678 228.10059,313.58665 L 321.55762,313.58665"
       style="font-size:300px;font-style:normal;font-weight:normal;opacity:1;color:#000000;fill:#000000;fill-opacity:1;fill-rule:nonzero;stroke:none;stroke-width:1px;stroke-linecap:butt;stroke-linejoin:miter;marker:none;marker-start:none;marker-mid:none;marker-end:none;stroke-miterlimit:4;stroke-dasharray:none;stroke-dashoffset:0;stroke-opacity:1;visibility:visible;display:inline;overflow:visible;enable-background:accumulate;font-family:Times New Roman"
       id="text2159" />
    <path
       d="M 148.64865,249.84275 L 351.35135,249.84275 L 351.35135,274.41277 L 148.64865,274.41277 L 148.64865,249.84275 z "
       style="opacity:1;color:#000000;fill:#000000;fill-opacity:1;fill-rule:nonzero;stroke:none;stroke-width:1px;stroke-linecap:butt;stroke-linejoin:miter;marker:none;marker-start:none;marker-mid:none;marker-end:none;stroke-miterlimit:4;stroke-dasharray:none;stroke-dashoffset:0;stroke-opacity:1;visibility:visible;display:inline;overflow:visible;enable-background:accumulate"
       id="rect2169" />
    <path
       d="M 315.55176,185.66929 L 301.63574,223.90171 L 184.44824,223.90171 L 184.44824,218.48179 C 218.92086,187.03652 243.18841,161.35295 257.25098,141.43101 C 271.31339,121.50924 278.34463,103.29637 278.34473,86.792342 C 278.34463,74.194835 274.48721,63.843283 266.77246,55.737654 C 259.05754,47.632362 249.82903,43.579631 239.08692,43.579451 C 229.32124,43.579631 220.53219,46.460488 212.71973,52.222029 C 205.00486,57.886257 199.29197,66.235858 195.58106,77.270857 L 190.16113,77.270857 C 192.60253,59.204615 198.85252,45.337442 208.91113,35.669295 C 219.06734,26.001524 231.71382,21.167544 246.85059,21.167342 C 262.96378,21.167544 276.3915,26.34332 287.13379,36.694685 C 297.97351,47.046425 303.39343,59.253443 303.39356,73.315779 C 303.39343,83.374513 301.04968,93.433097 296.36231,103.49156 C 289.13563,119.31198 277.41689,136.06001 261.20606,153.7357 C 236.88959,180.29824 221.70406,196.31385 215.64942,201.78257 L 267.50488,201.78257 C 278.05166,201.7826 285.4247,201.39197 289.62403,200.6107 C 293.92078,199.82947 297.7782,198.26697 301.19629,195.9232 C 304.61413,193.48182 307.59265,190.06386 310.13184,185.66929 L 315.55176,185.66929"
       style="font-size:300px;font-style:normal;font-weight:normal;fill:#000000;fill-opacity:1;stroke:none;stroke-width:1px;stroke-linecap:butt;stroke-linejoin:miter;stroke-opacity:1;font-family:Times New Roman"
       id="text6164" />
  </g>
</svg>
