<?xml version="1.0" encoding="UTF-8" standalone="no"?>
<!-- Created with Inkscape (http://www.inkscape.org/) -->
<svg
   xmlns:svg="http://www.w3.org/2000/svg"
   xmlns="http://www.w3.org/2000/svg"
   version="1.0"
   width="500"
   height="500"
   id="svg2">
  <defs
     id="defs4" />
  <path
     d="M 243.09375,9.96875 C 208.80018,10.911137 179.83476,41.422789 177.21875,74.90625 C 176.0929,82.134927 175.27363,89.408981 174.0625,96.625 C 184.44567,91.916028 198.47268,98.139535 206.90625,88.75 C 210.66123,81.371569 212.89683,72.430551 220.1875,67.40625 C 231.49283,57.695481 251.5267,57.851471 259.59375,71.625 C 268.43091,85.350329 264.73767,103.27117 257.5,116.9375 C 242.80602,147.92239 216.26403,170.79819 192.875,194.90625 C 184.47447,202.76425 174.2817,210.03848 170.34375,221.125 C 171.65433,224.21315 168.47859,224.28286 166.3125,223.53125 C 154.69792,223.53125 143.08333,223.53125 131.46875,223.53125 C 131.46875,241.58333 131.46875,259.63542 131.46875,277.6875 C 133.27156,277.23749 137.96426,274.21664 139.21875,276.09375 C 134.13033,309.93767 128.16146,343.69007 122.1875,377.40625 C 114.76282,374.96578 108.23184,381.24036 101.09114,382.32834 C 92.155002,385.34638 83.329791,388.53839 74.375,391.53125 C 85.887731,424.38794 95.860539,457.77218 108.8125,490.09375 C 117.37415,497.06126 129.29445,493.44801 138.75,497.84375 C 148.44622,499.43606 158.32896,491.03492 157.55957,481.07968 C 164.20622,445.48908 169.85644,409.72075 176.125,374.0625 C 185.24943,374.46982 194.64877,369.04882 197.34375,360.09375 C 199.65709,357.06241 202.76325,354.31022 206.5,353.375 C 204.35354,378.02659 197.02083,403.11788 180.34375,422 C 171.73813,434.17159 171.24504,453.67158 183.9375,463.15625 C 199.87464,476.59632 228.5622,468.76929 233.72612,448.03242 C 244.82161,417.58354 245.50668,384.30286 247.78125,352.53125 C 249.67307,352.29757 252.26875,352.29651 250.9375,354.90625 C 248.36787,367.73424 248.27332,381.00614 246.54823,394.01959 C 245.50996,410.23664 243.68577,427.0856 247.59375,443 C 255.29715,466.5984 286.35248,477.37835 307.59375,465.09375 C 324.44975,455.91177 332.08978,436.52466 333.75,418.25 C 334.55322,412.43719 335.05673,406.59171 335.59375,400.75 C 324.94647,402.08032 311.13295,397.56587 303.3125,407.28125 C 300.13122,410.45113 302.22922,417.19005 297.8125,418.9375 C 293.94529,415.53257 297.04754,409.21048 295.9375,404.625 C 295.73028,387.34656 297.73945,370.15589 298.84375,352.9375 C 310.41667,352.9375 321.98958,352.9375 333.5625,352.9375 C 333.5625,341.40625 333.5625,329.875 333.5625,318.34375 C 345.66667,318.34375 357.77083,318.34375 369.875,318.34375 C 369.875,300.32292 369.875,282.30208 369.875,264.28125 C 367.98532,264.39587 363.11132,267.96592 361.96875,265.625 C 362.34249,251.59929 362.13133,237.56192 362.1875,223.53125 C 347.48958,223.53125 332.79167,223.53125 318.09375,223.53125 C 325.25217,202.93418 333.80448,182.76951 339.8125,161.8125 C 333.16192,167.96914 325.84748,176.31766 315.71875,174.46875 C 307.89111,173.70108 299.78154,177.28087 296.28125,184.53125 C 287.60161,193.81204 273.28276,190.04902 262.03125,190.625 C 259.03893,189.63688 245.87321,193.13637 251.03125,188.59375 C 278.42891,159.98562 307.85796,129.51361 316.8125,89.6875 C 321.9665,62.357337 308.60171,32.284378 283.71875,19.46875 C 271.42006,12.46809 257.23602,9.3463891 243.09375,9.96875 z "
     style="font-size:300px;font-style:normal;font-weight:normal;fill:#ffffff;fill-opacity:1;stroke:none;stroke-width:1px;stroke-linecap:butt;stroke-linejoin:miter;stroke-opacity:1;font-family:Times New Roman"
     id="path3164" />
  <g
     id="g3153">
    <path
       d="M 320.37559,318.63715 L 320.37559,340.02387 L 286.39121,340.02387 L 283.46152,384.55511 C 282.87548,392.27002 282.58251,398.95946 282.58262,404.62347 C 282.58251,418.19773 284.14501,426.4985 287.27012,429.52582 C 290.49266,432.45552 294.35008,433.92037 298.84238,433.92035 C 308.21725,433.92037 313.78365,428.01217 315.5416,416.19574 L 320.81504,416.19574 C 317.59224,443.34419 306.75241,456.91839 288.29551,456.91839 C 279.70165,456.91839 272.76807,454.28167 267.49473,449.00824 C 262.31886,443.73481 259.73097,435.92232 259.73106,425.57074 C 259.73097,418.73484 260.75636,404.28172 262.80723,382.21136 L 266.76231,340.02387 L 235.70762,340.02387 C 233.65678,375.57082 231.16655,401.54735 228.23692,417.95355 C 225.40483,434.35982 222.23101,444.95551 218.71543,449.74066 C 215.29742,454.52582 210.60993,456.91839 204.65293,456.91839 C 200.16072,456.91839 196.35213,455.60003 193.22715,452.96332 C 190.19979,450.3266 188.68612,446.85981 188.68613,442.56293 C 188.68612,438.46138 191.32284,432.84615 196.59629,425.71722 C 204.3111,415.3657 210.07282,404.62352 213.88145,393.49066 C 217.69,382.26026 220.57085,364.43802 222.52402,340.02387 L 212.56309,340.02387 C 204.55525,340.02398 198.40291,341.83062 194.10606,345.44379 C 189.90682,348.95952 185.90292,354.03764 182.09434,360.67817 L 176.8209,360.67817 C 179.65293,350.22905 183.31503,341.63531 187.80723,334.89692 C 192.2994,328.15876 196.88924,323.76423 201.57676,321.71332 C 206.36188,319.66267 214.80914,318.63728 226.91856,318.63715 L 320.37559,318.63715"
       style="font-size:300px;font-style:normal;font-weight:normal;fill:#000000;fill-opacity:1;stroke:none;stroke-width:1px;stroke-linecap:butt;stroke-linejoin:miter;stroke-opacity:1;font-family:Times New Roman"
       id="text2159" />
    <path
       d="M 316.7338,189.73051 L 302.81778,227.96293 L 185.63028,227.96293 L 185.63028,222.54301 C 220.1029,191.09773 244.37045,165.41416 258.43302,145.49222 C 272.49542,125.57045 279.52667,107.35758 279.52677,90.853552 C 279.52667,78.256055 275.66925,67.904495 267.9545,59.798865 C 260.23958,51.693575 251.01107,47.640845 240.26895,47.640665 C 230.50328,47.640845 221.71422,50.521705 213.90177,56.283245 C 206.1869,61.947475 200.47401,70.297075 196.76309,81.332075 L 191.34317,81.332075 C 193.78456,63.265835 200.03456,49.398655 210.09317,39.730515 C 220.24938,30.062735 232.89585,25.228765 248.03263,25.228555 C 264.14582,25.228765 277.57354,30.404535 288.31583,40.755905 C 299.15555,51.107645 304.57547,63.314655 304.57559,77.376995 C 304.57547,87.435725 302.23172,97.494312 297.54434,107.55277 C 290.31767,123.37319 278.59893,140.12122 262.38809,157.79691 C 238.07163,184.35946 222.8861,200.37506 216.83145,205.84379 L 268.68692,205.84379 C 279.2337,205.84381 286.60674,205.45318 290.80606,204.67191 C 295.10282,203.89069 298.96024,202.32819 302.37833,199.98441 C 305.79617,197.54304 308.77468,194.12507 311.31388,189.73051 L 316.7338,189.73051"
       style="font-size:300px;font-style:normal;font-weight:normal;fill:#000000;fill-opacity:1;stroke:none;stroke-width:1px;stroke-linecap:butt;stroke-linejoin:miter;stroke-opacity:1;font-family:Times New Roman"
       id="text2165" />
    <path
       d="M 146.28458,238.62069 L 348.98728,238.62069 L 348.98728,263.19071 L 146.28458,263.19071 L 146.28458,238.62069 z "
       style="fill:#000000;fill-opacity:1;stroke:none;stroke-width:17.70199966;stroke-miterlimit:4;stroke-dashoffset:0;stroke-opacity:1"
       id="rect2169" />
    <g
       id="g3148">
      <path
         d="M 153.9678,280.8592 L 356.6705,280.8592 L 356.6705,305.42922 L 153.9678,305.42922 L 153.9678,280.8592 z "
         style="fill:#000000;fill-opacity:1;stroke:none;stroke-width:17.70199966;stroke-miterlimit:4;stroke-dashoffset:0;stroke-opacity:1"
         id="path3142" />
      <path
         d="M 119.67668,480.78925 L 153.98002,281.01021 L 178.19566,285.16819 L 143.89232,484.94723 L 119.67668,480.78925 z "
         style="fill:#000000;fill-opacity:1;stroke:none;stroke-width:17.70199966;stroke-miterlimit:4;stroke-dashoffset:0;stroke-opacity:1"
         id="path3144" />
      <path
         d="M 120.24932,481.36058 L 92.934876,401.36906 L 116.15731,393.34391 L 143.47176,473.33543 L 120.24932,481.36058 z "
         style="fill:#000000;fill-opacity:1;stroke:none;stroke-width:17.70199966;stroke-miterlimit:4;stroke-dashoffset:0;stroke-opacity:1"
         id="path3146" />
    </g>
  </g>
</svg>
