<?xml version="1.0" encoding="UTF-8" standalone="no"?>
<!-- Created with Inkscape (http://www.inkscape.org/) -->
<svg
   xmlns:svg="http://www.w3.org/2000/svg"
   xmlns="http://www.w3.org/2000/svg"
   version="1.0"
   width="500"
   height="500"
   id="svg2">
  <defs
     id="defs4" />
  <g
     transform="translate(9.6947219,10.158785)"
     id="g4121">
    <path
       d="M 287.25,-9.21875 C 199.91722,-9.7419946 114.6098,37.088108 67.384826,110.2084 C 25.481249,172.4006 5.6938705,248.94906 10.374179,323.77692 C 14.962611,375.98596 40.091699,427.68463 83.8125,457.84375 C 115.63494,480.66036 155.3421,490.20861 194.25,488.78125 C 232.17488,488.63275 270.7776,484.51689 306.22957,470.50752 C 353.06166,450.68179 394.00373,413.1015 411.15625,364.5625 C 413.40886,358.01626 415.17186,351.1208 416.5625,344.25 C 388.0625,344.25 359.5625,344.25 331.0625,344.25 C 323.53741,381.22931 289.69802,409.22914 253.46875,416.1875 C 225.73126,421.4131 195.90762,421.04061 169.4375,410.65625 C 148.28319,400.75396 133.18967,380.14167 128.9375,357.1875 C 124.88747,340.3334 124.51799,322.66668 125.75,305.34375 C 210.042,303.36512 296.55453,296.00039 374.34368,261.38961 C 414.50967,243.05406 451.15154,210.74458 463.78125,167.3125 C 477.09231,124.76478 472.64986,74.152382 442.90625,39.4375 C 416.44292,9.9064438 376.4156,-2.6969428 337.88858,-6.8263941 C 321.09348,-8.8362882 304.15284,-9.3476479 287.25,-9.21875 z M 274.5,60.25 C 299.634,60.110004 327.80839,61.653145 347.34375,79.46875 C 363.72936,96.9727 363.65161,123.71891 356.46928,145.16884 C 347.26302,171.50799 321.79688,187.24189 297.48019,197.83289 C 247.79708,219.93944 193.31465,228.24175 139.3125,231.96875 C 150.84473,183.9598 164.06903,133.95209 197.15625,95.84375 C 217.12137,74.82685 245.20794,60.813741 274.5,60.25 z "
       style="font-size:300px;font-style:italic;font-weight:normal;fill:#ffffff;fill-opacity:1;stroke:none;stroke-width:1px;stroke-linecap:butt;stroke-linejoin:miter;stroke-opacity:1;font-family:DejaVu Serif"
       id="path2159" />
    <path
       d="M 112.79461,291.56773 C 111.67618,302.19174 111.11703,312.25646 111.11715,321.76187 C 111.11703,348.04204 115.8698,369.84889 125.37549,387.18248 C 141.87029,417.93579 172.20417,433.31242 216.37724,433.31239 C 248.8077,433.31242 272.99094,428.41986 288.92703,418.6347 C 317.44337,401.0215 335.0566,380.89211 341.76675,358.24644 L 398.38074,358.24644 C 387.19733,393.75255 360.77748,423.94666 319.12114,448.82881 C 290.04503,466.16248 246.71089,474.82931 189.11866,474.82931 C 131.52601,474.82931 87.213383,453.44181 56.180626,410.66678 C 34.373721,380.75231 23.470296,344.12801 23.470325,300.79373 C 23.470296,281.78277 25.567105,261.51358 29.760752,239.98608 C 43.459893,169.25383 73.933564,112.36034 121.18187,69.30539 C 168.4299,26.251238 225.60297,4.723975 292.7013,4.723517 C 402.01481,4.723975 456.6717,43.445118 456.67218,120.88703 C 456.6717,177.6411 428.01528,219.85692 370.70278,247.53463 C 312.27123,275.77192 226.30191,290.44962 112.79461,291.56773 M 327.92776,197.63044 C 359.23981,179.17876 374.89603,152.61912 374.8964,117.95149 C 374.89603,70.144521 343.16428,46.240863 279.70103,46.240434 C 242.23768,46.240863 210.50593,60.499176 184.50567,89.01546 C 158.505,117.53249 137.53688,170.23235 121.60122,247.11528 C 211.34466,242.92186 280.1201,226.42693 327.92776,197.63044"
       style="font-size:300px;font-style:italic;font-weight:normal;fill:#000000;fill-opacity:1;stroke:none;stroke-width:1px;stroke-linecap:butt;stroke-linejoin:miter;stroke-opacity:1;font-family:DejaVu Serif"
       id="text2189" />
  </g>
</svg>
