<?xml version="1.0" encoding="UTF-8" standalone="no"?>
<!-- Created with Inkscape (http://www.inkscape.org/) -->
<svg
   xmlns:svg="http://www.w3.org/2000/svg"
   xmlns="http://www.w3.org/2000/svg"
   version="1.0"
   width="500"
   height="500"
   id="svg2">
  <defs
     id="defs4" />
  <g
     transform="translate(8.875,9.6373885)"
     id="g3152">
    <path
       d="M 148.84375,27.1875 C 93.058789,27.892525 40.321166,63.066178 16.5884,113.13047 C 7.4680349,130.11428 0.80805378,148.42896 -5.34375,166.71875 C 11.447917,166.71875 28.239583,166.71875 45.03125,166.71875 C 51.332575,140.77435 77.634403,125.4205 102.6875,122.46875 C 115.46076,120.75477 128.5066,120.38066 141.4375,120.53125 C 118.10854,205.05422 77.885022,285.86348 19.5,351.5625 C 5.8873912,369.21588 -6.2681325,391.66501 -1.1875,414.71875 C 7.0579624,444.24828 42.53242,459.89932 71.03125,451.15625 C 97.428506,443.92807 115.42194,420.19722 124.7369,395.45435 C 147.1907,344.55122 160.65698,290.20083 177.15625,237.125 C 188.53413,198.29028 199.53603,159.40605 210.8125,120.5625 C 229.07292,120.5625 247.33333,120.5625 265.59375,120.5625 C 242.35816,195.34597 215.48202,269.58211 203.96875,347.3125 C 200.78954,375.62102 204.60901,407.604 225.59399,428.53845 C 251.7869,455.66585 295.49232,459.66604 329.375,445.625 C 355.73544,435.23975 376.61295,413.75024 389.06504,388.47044 C 401.63767,365.26277 408.88491,339.67803 415.25,314.15625 C 399.04167,314.15625 382.83333,314.15625 366.625,314.15625 C 358.52233,334.83509 350.10934,359.01955 328.875,369.65625 C 316.70481,375.9888 297.58926,369.09761 296.34375,354.375 C 293.50279,324.23907 306.70244,296.07491 313.21113,267.28436 C 327.05625,218.27266 342.08591,169.51344 356.34375,120.5625 C 391.05208,120.5625 425.76042,120.5625 460.46875,120.5625 C 469.41603,89.451134 478.45706,58.294076 487.59375,27.15625 C 374.67708,27.164988 261.76041,27.132318 148.84375,27.1875 z "
       style="font-size:891.8795166px;font-style:normal;font-weight:normal;fill:#ffffff;fill-opacity:1;stroke:none;stroke-width:1px;stroke-linecap:butt;stroke-linejoin:miter;stroke-opacity:1;font-family:Bitstream Vera Serif"
       id="path2162" />
    <path
       d="M 466.33494,43.163015 L 448.47993,104.56683 L 344.39829,104.56683 L 293.44618,277.45559 C 284.15548,309.39149 279.51028,333.05299 279.51057,348.44014 C 279.51028,359.76289 282.99418,369.19846 289.96228,376.74686 C 297.22011,384.00504 306.65567,387.6341 318.269,387.63406 C 342.94631,387.6341 362.68841,368.47265 377.49538,330.14964 L 394.47941,330.14964 C 375.02723,401.56971 340.04306,437.27969 289.52679,437.2797 C 268.33276,437.27969 251.20358,431.0377 238.1392,418.55371 C 225.36465,406.06974 218.9775,388.35991 218.97773,365.42417 C 218.9775,347.42408 223.18722,322.31096 231.60688,290.08474 L 242.49408,248.71338 C 243.36481,244.649 244.67127,239.71348 246.41348,233.90678 L 287.34935,104.56683 L 198.94528,104.56683 L 152.78355,263.51997 C 131.58965,336.39173 114.7508,383.56955 102.26693,405.05358 C 90.07317,426.53766 73.960127,437.27969 53.92776,437.2797 C 43.76632,437.27969 34.475917,434.08611 26.056525,427.69896 C 17.637063,421.60214 13.42735,413.32787 13.427371,402.87614 C 13.42735,388.94056 24.024215,369.63395 45.217999,344.95623 C 97.76678,283.4074 136.81551,203.27768 162.36428,104.56683 L 130.57366,104.56683 C 80.637604,104.56715 48.411521,119.95438 33.89531,150.72857 L 17.346764,150.72857 C 43.76632,79.018545 90.21833,43.163399 156.70294,43.163015 L 466.33494,43.163015"
       style="font-size:891.8795166px;font-style:normal;font-weight:normal;fill:#000000;fill-opacity:1;stroke:none;stroke-width:1px;stroke-linecap:butt;stroke-linejoin:miter;stroke-opacity:1;font-family:Bitstream Vera Serif"
       id="text2177" />
  </g>
</svg>
