<?xml version="1.0" encoding="UTF-8" standalone="no"?>
<!-- Created with Inkscape (http://www.inkscape.org/) -->
<svg
   xmlns:svg="http://www.w3.org/2000/svg"
   xmlns="http://www.w3.org/2000/svg"
   version="1.0"
   width="500"
   height="500"
   id="svg2">
  <defs
     id="defs4" />
  <path
     d="M 326.40625,24.5 C 286.18191,26.2139 245.7645,22.823396 205.64529,26.387896 C 188.92847,29.836287 176.06284,43.29857 169.84375,58.65625 C 163.77165,71.409992 160.67942,85.241017 157.5625,98.96875 C 170.16277,97.63853 185.73374,102.96662 195.78125,92.84375 C 199.16887,88.528177 201.07081,82.547817 206.15625,79.75 C 203.85206,103.64815 195.63033,127.48849 179.6875,145.78125 C 171.52467,158.21042 171.8071,177.0724 183.53125,187.15625 C 166.57292,187.15625 149.61458,187.15625 132.65625,187.15625 C 132.65625,206.01042 132.65625,224.86458 132.65625,243.71875 C 157.68266,243.80856 182.9128,243.53275 207.8125,243.8125 C 186.91773,257.46565 175.01469,281.96059 173.78566,306.65265 C 172.9361,312.61545 171.94534,318.55663 170.96875,324.5 C 182.17025,317.48425 198.03432,325.24408 207.71875,314.9375 C 212.44194,304.9548 217.0832,292.82895 228.5625,288.84375 C 240.95234,283.53017 257.79925,290.00273 260.75,304.0625 C 266.51774,324.12159 254.82298,343.84074 244.02335,359.85262 C 224.25572,387.90829 197.88319,410.05946 173.96875,434.4375 C 167.90006,440.81726 165.12274,451.25903 170.90625,458.65625 C 176.04633,466.43574 186.24998,469.92275 195.18741,467.58065 C 234.42516,467.03764 273.66676,467.54977 312.90625,467.375 C 322.91076,438.05455 335.05705,409.49997 343.53125,379.6875 C 335.16748,386.41799 327.75455,398.75057 315.46875,396.9375 C 306.39533,395.80451 297.56512,401.0437 293.21875,408.8125 C 283.58632,416.32039 270.32025,412.27716 259.0625,413 C 254.79332,413.39756 250.70687,414.0442 256.58008,409.7608 C 283.4176,381.69162 311.52069,350.95374 318.90625,311.5625 C 322.6417,285.2594 310.01739,257.21798 287.0625,243.71875 C 313.82292,243.71875 340.58333,243.71875 367.34375,243.71875 C 367.34375,224.86458 367.34375,206.01042 367.34375,187.15625 C 350.06614,187.09329 332.18127,187.28186 315.28125,187.0625 C 330.7517,175.80733 337.06878,156.14999 338.22254,137.63333 C 338.9477,132.3251 339.3554,126.94923 339.75,121.59375 C 328.16164,123.84904 313.42751,118.62095 304.375,128.5 C 301.31682,131.08681 301.81932,136.66818 300.125,139.15625 C 299.18131,133.78655 300.93581,127.95642 300.0725,122.4063 C 300.19292,107.58857 301.36608,92.653132 303.0625,78.03125 C 313.83807,78.860055 328.333,80.628091 334.96875,69.9375 C 340.72356,59.047159 336.0482,46.426202 337.75,34.84375 C 336.97481,29.336964 332.33985,24.052181 326.40625,24.5 z M 245.3125,146.03125 C 245.86153,158.24219 246.53693,171.77984 255.875,180.78125 C 258.04704,183.18067 260.47081,185.29887 263.125,187.15625 C 251.58213,187.02869 238.6645,187.40968 227.96875,186.96875 C 238.98237,177.66659 240.42409,162.34982 244.09375,149.28125 C 244.62731,147.87548 245.47225,139.46696 245.3125,146.03125 z "
     style="font-size:300px;font-style:normal;font-weight:normal;fill:#ffffff;fill-opacity:1;stroke:none;stroke-width:1px;stroke-linecap:butt;stroke-linejoin:miter;stroke-opacity:1;font-family:Times New Roman"
     id="path5413" />
  <g
     id="g3146">
    <path
       d="M 321.55762,40.859375 L 321.55762,62.246094 L 287.57324,62.246094 L 284.64355,106.77734 C 284.05751,114.49225 283.76454,121.18169 283.76465,126.8457 C 283.76454,140.41996 285.32704,148.72073 288.45215,151.74805 C 291.67469,154.67775 295.53211,156.1426 300.02441,156.14258 C 309.39928,156.1426 314.96568,150.2344 316.72363,138.41797 L 321.99707,138.41797 C 318.77427,165.56642 307.93444,179.14062 289.47754,179.14062 C 280.88368,179.14062 273.9501,176.5039 268.67676,171.23047 C 263.50089,165.95704 260.913,158.14455 260.91309,147.79297 C 260.913,140.95707 261.93839,126.50395 263.98926,104.43359 L 267.94434,62.246094 L 236.88965,62.246094 C 234.83881,97.793046 232.34858,123.76958 229.41895,140.17578 C 226.58686,156.58205 223.41304,167.17774 219.89746,171.96289 C 216.47945,176.74805 211.79196,179.14062 205.83496,179.14062 C 201.34275,179.14062 197.53416,177.82226 194.40918,175.18555 C 191.38182,172.54883 189.86815,169.08204 189.86816,164.78516 C 189.86815,160.68361 192.50487,155.06838 197.77832,147.93945 C 205.49313,137.58793 211.25485,126.84575 215.06348,115.71289 C 218.87203,104.48249 221.75288,86.660245 223.70605,62.246094 L 213.74512,62.246094 C 205.73728,62.246207 199.58494,64.052845 195.28809,67.666016 C 191.08885,71.181744 187.08495,76.259864 183.27637,82.900391 L 178.00293,82.900391 C 180.83496,72.451274 184.49706,63.857533 188.98926,57.119141 C 193.48143,50.380984 198.07127,45.986457 202.75879,43.935547 C 207.54391,41.884899 215.99117,40.859509 228.10059,40.859375 L 321.55762,40.859375"
       style="font-size:300px;font-style:normal;font-weight:normal;fill:#000000;fill-opacity:1;stroke:none;stroke-width:1px;stroke-linecap:butt;stroke-linejoin:miter;stroke-opacity:1;font-family:Times New Roman"
       id="text2159" />
    <path
       d="M 315.55176,413.13477 L 301.63574,451.36719 L 184.44824,451.36719 L 184.44824,445.94727 C 218.92086,414.50199 243.18841,388.81842 257.25098,368.89648 C 271.31338,348.97471 278.34463,330.76184 278.34473,314.25781 C 278.34463,301.66031 274.48721,291.30875 266.77246,283.20312 C 259.05754,275.09783 249.82903,271.0451 239.08691,271.04492 C 229.32124,271.0451 220.53218,273.92596 212.71973,279.6875 C 205.00486,285.35173 199.29197,293.70133 195.58105,304.73633 L 190.16113,304.73633 C 192.60252,286.67009 198.85252,272.80291 208.91113,263.13477 C 219.06734,253.46699 231.71381,248.63302 246.85059,248.63281 C 262.96378,248.63302 276.3915,253.80879 287.13379,264.16016 C 297.97351,274.5119 303.39343,286.71891 303.39355,300.78125 C 303.39343,310.83998 301.04968,320.89857 296.3623,330.95703 C 289.13563,346.77745 277.41689,363.52548 261.20605,381.20117 C 236.88959,407.76372 221.70406,423.77932 215.64941,429.24805 L 267.50488,429.24805 C 278.05166,429.24807 285.4247,428.85744 289.62402,428.07617 C 293.92078,427.29495 297.7782,425.73245 301.19629,423.38867 C 304.61413,420.9473 307.59264,417.52933 310.13184,413.13477 L 315.55176,413.13477"
       style="font-size:300px;font-style:normal;font-weight:normal;fill:#000000;fill-opacity:1;stroke:none;stroke-width:1px;stroke-linecap:butt;stroke-linejoin:miter;stroke-opacity:1;font-family:Times New Roman"
       id="text2165" />
    <path
       d="M 148.64865,203.1597 L 351.35135,203.1597 L 351.35135,227.72972 L 148.64865,227.72972 L 148.64865,203.1597 z "
       style="fill:#000000;fill-opacity:1;stroke:none;stroke-width:17.70199966;stroke-miterlimit:4;stroke-dashoffset:0;stroke-opacity:1"
       id="rect2169" />
  </g>
</svg>
