<?xml version="1.0" encoding="UTF-8" standalone="no"?>
<!-- Created with Inkscape (http://www.inkscape.org/) -->
<svg
   xmlns:svg="http://www.w3.org/2000/svg"
   xmlns="http://www.w3.org/2000/svg"
   version="1.0"
   width="500"
   height="500"
   id="svg2">
  <defs
     id="defs4" />
  <path
     d="M 326.40625,24.5 C 286.18191,26.2139 245.7645,22.823396 205.64529,26.387896 C 188.92847,29.836287 176.06284,43.29857 169.84375,58.65625 C 163.77165,71.409992 160.67942,85.241017 157.5625,98.96875 C 170.16277,97.63853 185.73374,102.96662 195.78125,92.84375 C 199.16887,88.528177 201.07081,82.547817 206.15625,79.75 C 203.85206,103.64815 195.63033,127.48849 179.6875,145.78125 C 171.52467,158.21042 171.8071,177.0724 183.53125,187.15625 C 166.57292,187.15625 149.61458,187.15625 132.65625,187.15625 C 132.65625,206.01042 132.65625,224.86458 132.65625,243.71875 C 175.70833,243.71875 218.76042,243.71875 261.8125,243.71875 C 230.20677,289.20043 198.29712,334.47266 166.53125,379.84375 C 166.53125,393.09375 166.53125,406.34375 166.53125,419.59375 C 194.5625,419.59375 222.59375,419.59375 250.625,419.59375 C 250.625,437.07292 250.625,454.55208 250.625,472.03125 C 269.34375,472.03125 288.0625,472.03125 306.78125,472.03125 C 306.78125,454.55208 306.78125,437.07292 306.78125,419.59375 C 315.67708,419.59375 324.57292,419.59375 333.46875,419.59375 C 333.46875,402 333.46875,384.40625 333.46875,366.8125 C 324.57292,366.8125 315.67708,366.8125 306.78125,366.8125 C 306.78125,325.78125 306.78125,284.75 306.78125,243.71875 C 326.96875,243.71875 347.15625,243.71875 367.34375,243.71875 C 367.34375,224.86458 367.34375,206.01042 367.34375,187.15625 C 350.06614,187.09329 332.18127,187.28186 315.28125,187.0625 C 330.7517,175.80733 337.06878,156.14999 338.22254,137.63333 C 338.9477,132.3251 339.3554,126.94923 339.75,121.59375 C 328.16164,123.84904 313.42751,118.62095 304.375,128.5 C 301.31682,131.08681 301.81932,136.66818 300.125,139.15625 C 299.18131,133.78655 300.93581,127.95642 300.0725,122.4063 C 300.19292,107.58857 301.36608,92.653132 303.0625,78.03125 C 313.83807,78.860055 328.333,80.628091 334.96875,69.9375 C 340.72356,59.047159 336.0482,46.426202 337.75,34.84375 C 336.97481,29.336964 332.33985,24.052181 326.40625,24.5 z M 245.3125,146.03125 C 245.86153,158.24219 246.53693,171.77984 255.875,180.78125 C 258.04704,183.18067 260.47081,185.29887 263.125,187.15625 C 251.58213,187.02869 238.6645,187.40968 227.96875,186.96875 C 238.98237,177.66659 240.42409,162.34982 244.09375,149.28125 C 244.62731,147.87548 245.47225,139.46696 245.3125,146.03125 z M 250.625,366.8125 C 242.98958,366.8125 235.35417,366.8125 227.71875,366.8125 C 235.35417,356.03125 242.98958,345.25 250.625,334.46875 C 250.625,345.25 250.625,356.03125 250.625,366.8125 z "
     style="font-size:300px;font-style:normal;font-weight:normal;fill:#ffffff;fill-opacity:1;stroke:none;stroke-width:1px;stroke-linecap:butt;stroke-linejoin:miter;stroke-opacity:1;font-family:Times New Roman"
     id="path6485" />
  <g
     id="g4156">
    <path
       d="M 321.55762,40.859375 L 321.55762,62.246094 L 287.57324,62.246094 L 284.64355,106.77734 C 284.05751,114.49225 283.76454,121.18169 283.76465,126.8457 C 283.76454,140.41996 285.32704,148.72073 288.45215,151.74805 C 291.67469,154.67775 295.53211,156.1426 300.02441,156.14258 C 309.39928,156.1426 314.96568,150.2344 316.72363,138.41797 L 321.99707,138.41797 C 318.77427,165.56642 307.93444,179.14062 289.47754,179.14062 C 280.88368,179.14062 273.9501,176.5039 268.67676,171.23047 C 263.50089,165.95704 260.913,158.14455 260.91309,147.79297 C 260.913,140.95707 261.93839,126.50395 263.98926,104.43359 L 267.94434,62.246094 L 236.88965,62.246094 C 234.83881,97.793046 232.34858,123.76958 229.41895,140.17578 C 226.58686,156.58205 223.41304,167.17774 219.89746,171.96289 C 216.47945,176.74805 211.79196,179.14062 205.83496,179.14062 C 201.34275,179.14062 197.53416,177.82226 194.40918,175.18555 C 191.38182,172.54883 189.86815,169.08204 189.86816,164.78516 C 189.86815,160.68361 192.50487,155.06838 197.77832,147.93945 C 205.49313,137.58793 211.25485,126.84575 215.06348,115.71289 C 218.87203,104.48249 221.75288,86.660245 223.70605,62.246094 L 213.74512,62.246094 C 205.73728,62.246207 199.58494,64.052845 195.28809,67.666016 C 191.08885,71.181744 187.08495,76.259864 183.27637,82.900391 L 178.00293,82.900391 C 180.83496,72.451274 184.49706,63.857533 188.98926,57.119141 C 193.48143,50.380984 198.07127,45.986457 202.75879,43.935547 C 207.54391,41.884899 215.99117,40.859509 228.10059,40.859375 L 321.55762,40.859375"
       style="font-size:300px;font-style:normal;font-weight:normal;fill:#000000;fill-opacity:1;stroke:none;stroke-width:1px;stroke-linecap:butt;stroke-linejoin:miter;stroke-opacity:1;font-family:Times New Roman"
       id="text2159" />
    <path
       d="M 148.64865,203.1597 L 351.35135,203.1597 L 351.35135,227.72972 L 148.64865,227.72972 L 148.64865,203.1597 z "
       style="fill:#000000;fill-opacity:1;stroke:none;stroke-width:17.70199966;stroke-miterlimit:4;stroke-dashoffset:0;stroke-opacity:1"
       id="rect2169" />
    <path
       d="M 317.45605,382.79712 L 317.45605,403.5979 L 290.7959,403.5979 L 290.7959,456.03931 L 266.62598,456.03931 L 266.62598,403.5979 L 182.54395,403.5979 L 182.54395,384.8479 L 274.68262,253.30493 L 290.7959,253.30493 L 290.7959,382.79712 L 317.45605,382.79712 M 266.62598,382.79712 L 266.62598,284.21313 L 196.89941,382.79712 L 266.62598,382.79712"
       style="font-size:300px;font-style:normal;font-weight:normal;fill:#000000;fill-opacity:1;stroke:none;stroke-width:1px;stroke-linecap:butt;stroke-linejoin:miter;stroke-opacity:1;font-family:Times New Roman"
       id="text4146" />
  </g>
</svg>
