<?xml version="1.0" encoding="UTF-8" standalone="no"?>
<!-- Created with Inkscape (http://www.inkscape.org/) -->
<svg
   xmlns:svg="http://www.w3.org/2000/svg"
   xmlns="http://www.w3.org/2000/svg"
   version="1.0"
   width="500"
   height="500"
   id="svg2">
  <defs
     id="defs4" />
  <path
     d="M 115.08126,51.786717 C 108.54077,119.63873 92.707274,186.30941 82.706265,253.72422 C 80.715036,247.96076 78.696832,242.20665 76.706265,236.44297 C 53.591226,244.81717 30.3255,252.4724 7.1437648,260.56797 C 24.552812,312.30379 42.164684,364.04341 59.987515,415.59922 C 68.614622,425.64665 83.357943,421.61179 94.550448,425.44896 C 105.35188,427.38458 116.17596,429.19037 126.98751,431.06797 C 144.62369,328.55949 162.23678,226.04701 179.86251,123.53672 C 203.32084,123.55019 226.77924,123.50554 250.23751,123.56797 C 223.65168,141.75674 209.02496,172.92731 205.83277,204.52468 C 203.72934,217.73054 204.08127,211.35461 203.607,224.74852 C 212.70393,225.47646 210.29278,225.57413 220.14376,224.75547 C 229.99474,223.93681 242.70634,222.63824 245.26876,211.81797 C 251.02138,188.39381 275.49358,168.97913 300.11251,174.34922 C 322.34929,179.32554 335.73606,203.69718 333.35675,225.56728 C 331.7178,263.55008 308.08091,295.53972 285.36618,324.38152 C 259.03722,357.3793 227.37291,385.45509 198.98751,416.59922 C 192.44855,428.0883 198.51843,446.61767 212.70626,448.28672 C 273.44196,447.33859 334.18578,448.14014 394.92501,447.84922 C 405.32793,415.23486 411.46949,395.22859 420.45781,362.2008 C 420.25978,357.21867 413.33311,358.43797 408.77211,357.47323 C 403.95114,356.89117 406.31889,357.18978 398.23751,357.38047 C 387.94408,356.73214 381.04442,365.76635 376.36251,373.59922 C 363.94952,385.34885 345.16039,381.25497 329.64438,382.23188 C 318.11334,382.36591 306.58127,382.24267 295.05001,382.19297 C 333.19598,340.18469 374.3437,297.97202 394.80977,244.21507 C 406.63438,211.52823 404.60945,171.19634 381.14376,143.91172 C 374.78272,135.97828 367.13684,129.12796 358.70626,123.53672 C 402.97709,123.53672 447.24793,123.53672 491.51876,123.53672 C 491.51876,98.953387 491.51876,74.37005 491.51876,49.786717 C 366.03959,49.786717 240.56043,49.786717 115.08126,49.786717 L 115.08126,50.786717 L 115.08126,51.786717 z "
     style="font-size:300px;font-style:normal;font-weight:normal;fill:#ffffff;fill-opacity:1;stroke:none;stroke-width:1px;stroke-linecap:butt;stroke-linejoin:miter;stroke-opacity:1;font-family:Times New Roman"
     id="path7162" />
  <path
     d="M 402.99742,373.8339 L 382.76274,431.97962 L 212.36539,431.97962 L 212.36539,423.73674 C 262.49055,375.91323 297.77696,336.85239 318.22474,306.55413 C 338.67228,276.25612 348.89613,248.5571 348.89626,223.45697 C 348.89613,204.29806 343.28722,188.55491 332.06953,176.22747 C 320.8516,163.90055 307.43281,157.73695 291.81315,157.73668 C 277.6133,157.73695 264.83351,162.11831 253.47375,170.88075 C 242.25589,179.49518 233.94903,192.19366 228.55313,208.97623 L 220.67226,208.97623 C 224.22218,181.50021 233.31004,160.41031 247.93583,145.70654 C 262.70354,131.0033 281.09224,123.65157 303.10199,123.65125 C 326.53149,123.65157 346.05616,131.52313 361.67607,147.266 C 377.43765,163.00944 385.31852,181.57445 385.31869,202.96115 C 385.31852,218.25896 381.91057,233.55655 375.09484,248.85396 C 364.58686,272.91442 347.54713,298.38566 323.97565,325.26771 C 288.61813,365.66534 266.53749,390.02265 257.73368,398.33976 L 333.1345,398.33976 C 348.47013,398.33978 359.19095,397.7457 365.297,396.5575 C 371.54474,395.36939 377.15365,392.99306 382.12375,389.42853 C 387.09348,385.71558 391.4244,380.51735 395.11655,373.8339 L 402.99742,373.8339"
     style="font-size:300px;font-style:normal;font-weight:normal;fill:#000000;fill-opacity:1;stroke:none;stroke-width:1px;stroke-linecap:butt;stroke-linejoin:miter;stroke-opacity:1;font-family:Times New Roman"
     id="text2165" />
  <path
     d="M 130.44659,65.934612 L 474.87378,65.934612 L 474.87378,107.68336 L 130.44659,107.68336 L 130.44659,65.934612 z "
     style="fill:#000000;fill-opacity:1;stroke:none;stroke-width:17.70199966;stroke-miterlimit:4;stroke-dashoffset:0;stroke-opacity:1"
     id="path3142" />
  <path
     d="M 72.180005,405.6506 L 130.46735,66.191204 L 171.61394,73.256337 L 113.32659,412.71573 L 72.180005,405.6506 z "
     style="fill:#000000;fill-opacity:1;stroke:none;stroke-width:17.70199966;stroke-miterlimit:4;stroke-dashoffset:0;stroke-opacity:1"
     id="path3144" />
  <path
     d="M 73.153021,406.62139 L 26.741019,270.70186 L 66.199983,257.06573 L 112.61199,392.98526 L 73.153021,406.62139 z "
     style="fill:#000000;fill-opacity:1;stroke:none;stroke-width:17.70199966;stroke-miterlimit:4;stroke-dashoffset:0;stroke-opacity:1"
     id="path3146" />
</svg>
